PathFileType	4	(X/Y/Z)	C:/Users/opensim2020/Desktop/walking_exp_matlab/subject01_walking08_straight_02.trc																																																																																																																															
DataRate	CameraRate	NumFrames	NumMarkers	Units	OrigDataRate	OrigDataStartFrame	OrigNumFrames																																																																																																																											
100	100	6	43	mm	100	1962	311																																																																																																																											
Frame#	Time	LFHD			RFHD			LBHD			RBHD			C7			T10			CLAV			STRN			RBAK			LSHO			LUPA			LELB			LFRM			LWRA			LWRB			LFIN			RSHO			RUPA			RELB			RFRM			RWRA			RWRB			RFIN			LASI			RASI			LPSI			RPSI			LTHI			LKNE			LTIB			LANK			LHEE			LTOE			RTHI			RKNE			RTIB			RANK			RHEE			RTOE			*39			*40			*41			*42		
		X1	Y1	Z1	X2	Y2	Z2	X3	Y3	Z3	X4	Y4	Z4	X5	Y5	Z5	X6	Y6	Z6	X7	Y7	Z7	X8	Y8	Z8	X9	Y9	Z9	X10	Y10	Z10	X11	Y11	Z11	X12	Y12	Z12	X13	Y13	Z13	X14	Y14	Z14	X15	Y15	Z15	X16	Y16	Z16	X17	Y17	Z17	X18	Y18	Z18	X19	Y19	Z19	X20	Y20	Z20	X21	Y21	Z21	X22	Y22	Z22	X23	Y23	Z23	X24	Y24	Z24	X25	Y25	Z25	X26	Y26	Z26	X27	Y27	Z27	X28	Y28	Z28	X29	Y29	Z29	X30	Y30	Z30	X31	Y31	Z31	X32	Y32	Z32	X33	Y33	Z33	X34	Y34	Z34	X35	Y35	Z35	X36	Y36	Z36	X37	Y37	Z37	X38	Y38	Z38	X39	Y39	Z39	X40	Y40	Z40	X41	Y41	Z41	X42	Y42	Z42	X43	Y43	Z43
																																																																																																																																		
156	1.55	-292.47006	1667.59583	-1524.10107	-275.11658	1681.72083	-1412.57751	-401.72992	1608.89282	-1508.17468	-386.47739	1622.22815	-1388.94458	-420.89606	1427.01733	-1453.86353	-445.46967	1133.0675	-1424.95081	-276.19165	1363.82678	-1453.38257	-225.18784	1210.98206	-1449.81433	-466.13635	1234.91882	-1360.7771	-339.30295	1381.41455	-1615.18921	-370.17636	1191.36548	-1687.65601	-388.28143	1043.10083	-1676.70764	-359.13696	933.09814	-1696.25781	-290.51154	812.40845	-1672.06482	-346.30417	811.30969	-1696.87561	-304.93668	736.30438	-1700.99243	-335.08694	1395.39929	-1301.48022	-373.66855	1197.68506	-1186.56079	-362.2146	1071.46875	-1178.90149	-308.98788	961.40271	-1151.31409	-206.41818	865.54504	-1178.47217	-245.54735	856.8222	-1136.0481	-191.61458	790.65973	-1141.33325	-261.37473	932.76068	-1519.49524	-273.19943	930.0849	-1302.99854	-451.14667	942.83899	-1476.23315	-454.21716	946.84106	-1331.57837	-240.22218	612.54846	-1580.77246	-224.56007	479.33212	-1563.97205	-247.49046	289.84363	-1577.69031	-242.34489	70.11839	-1527.89392	-281.52536	38.97639	-1471.90588	-92.9724	39.83092	-1535.47693	-347.78268	594.38831	-1245.17761	-359.00534	433.07022	-1260.79236	-494.13602	317.47385	-1258.93152	-627.68225	159.54794	-1299.37463	-687.01862	159.8391	-1350.29321	-553.82349	39.92218	-1304.73706	-292.42209	1712.71008	-1436.12537	-1973.16943	1023.53845	3101.90503	-2012.56079	1021.88629	3140.66431	NaN	NaN	NaN
157	1.56	-284.88953	1667.92786	-1526.45593	-267.74771	1682.13611	-1414.9386	-394.25906	1609.33752	-1510.85339	-379.2002	1622.69556	-1391.50269	-413.58963	1427.39783	-1456.21814	-438.22568	1133.45618	-1427.25525	-268.82135	1364.3595	-1455.53125	-217.78636	1211.54309	-1451.99158	-458.76953	1235.28662	-1363.15723	-331.67929	1381.89063	-1617.40271	-361.55899	1191.81677	-1690.20178	-378.66809	1043.34729	-1679.37866	-348.42169	933.54254	-1698.88721	-278.5672	813.56323	-1674.46704	-334.35532	811.94952	-1699.38708	-292.04855	737.34802	-1703.57312	-327.85199	1395.9491	-1303.81506	-366.92969	1198.65735	-1188.47449	-356.72214	1072.23914	-1181.10669	-304.64282	961.5484	-1153.30701	-203.14499	864.58087	-1180.44995	-242.28534	856.51721	-1137.88293	-189.23982	789.422	-1143.45593	-253.62752	933.39496	-1521.78784	-265.9845	930.58972	-1305.40906	-443.90829	943.46661	-1478.39893	-447.06866	946.98688	-1333.73926	-235.25206	612.44263	-1582.78967	-220.35617	479.02411	-1565.73157	-244.67862	289.49185	-1578.93127	-242.06633	70.07495	-1528.00305	-281.52325	39.04771	-1472.09302	-92.67634	39.09068	-1535.12622	-334.82098	593.79419	-1246.37793	-343.55771	432.89832	-1261.24072	-481.20682	320.46967	-1260.31274	-617.66724	165.23093	-1301.18103	-675.6803	168.05666	-1353.20508	-550.75281	40.68628	-1306.03955	-285.04294	1713.05725	-1438.4729	-1973.11731	1023.41528	3101.94385	-2012.58643	1021.91382	3140.73145	NaN	NaN	NaN
158	1.57	-277.34766	1668.18298	-1528.66504	-260.47623	1682.4353	-1417.12939	-386.84326	1609.68213	-1513.38367	-371.97473	1623.07397	-1393.96838	-406.18866	1427.78162	-1458.48267	-430.95898	1133.80005	-1429.47595	-261.46097	1364.81824	-1457.69189	-210.50514	1211.94409	-1454.10303	-451.51422	1235.65088	-1365.61401	-324.0795	1382.24402	-1619.46814	-352.8244	1192.28442	-1692.87329	-369.00055	1043.50415	-1682.00977	-337.63126	934.02716	-1701.59094	-266.43707	814.82172	-1677.09326	-322.22034	812.61243	-1702.30127	-278.91315	738.36963	-1706.12183	-320.5676	1396.41333	-1305.97095	-360.35641	1199.38574	-1190.33838	-351.21664	1072.89404	-1183.26367	-300.36353	961.69806	-1155.25403	-199.95912	863.59851	-1182.29932	-239.46144	855.89618	-1139.41553	-186.91612	788.09784	-1145.54541	-245.7321	934.04541	-1524.16541	-259.07736	931.0166	-1307.77014	-436.85324	943.95282	-1480.55542	-440.14377	946.80872	-1335.86658	-230.76588	612.13116	-1584.76978	-216.534	478.64673	-1567.51196	-242.15379	289.10742	-1579.99756	-241.85507	69.95146	-1528.06482	-281.50537	39.08078	-1472.19727	-92.4313	38.47968	-1534.77026	-321.823	593.1546	-1247.44116	-327.952	432.86545	-1261.71777	-467.97513	323.78754	-1261.66174	-607.70898	171.40512	-1303.10168	-664.25885	176.53706	-1355.86963	-548.3288	42.75938	-1308.18689	-277.6601	1713.31873	-1440.82336	-1973.12842	1023.29987	3101.8291	-2012.52917	1021.94104	3140.69263	NaN	NaN	NaN
159	1.58	-269.81778	1668.40759	-1530.76501	-253.14516	1682.79114	-1419.25098	-379.35989	1609.92712	-1515.65491	-364.69272	1623.39478	-1396.24731	-398.82755	1428.23804	-1460.6051	-424.15823	1134.26123	-1431.77832	-254.18332	1365.13501	-1459.68091	-203.37027	1212.17578	-1456.10742	-444.36429	1236.01062	-1368.03052	-316.50912	1382.53345	-1621.44324	-344.23563	1192.55225	-1695.17529	-359.34998	1043.58044	-1684.64929	-326.67096	934.36224	-1704.28015	-254.15384	816.02252	-1679.70447	-309.6795	813.09467	-1704.89111	-265.69348	739.51807	-1708.79089	-313.36859	1396.75989	-1307.93237	-353.82062	1199.95337	-1192.28601	-345.62463	1073.43652	-1185.24915	-296.06073	961.7301	-1157.18359	-196.83414	862.38898	-1184.25977	-235.91975	855.26361	-1141.45923	-184.80103	786.54413	-1147.44788	-240.66612	933.85791	-1526.09314	-252.67761	931.13867	-1310.11707	-429.94824	944.30237	-1482.68164	-433.39511	946.31183	-1337.95435	-226.50595	611.85626	-1586.62268	-212.91431	478.2211	-1569.22144	-240.00006	288.82291	-1580.9707	-241.67128	69.88725	-1528.15308	-281.50357	39.16368	-1472.30212	-92.26057	38.06685	-1534.66772	-308.82465	592.69061	-1248.39172	-312.59521	433.13431	-1262.47229	-454.71405	327.22928	-1262.99353	-597.01672	177.59183	-1305.28027	-652.82648	184.95828	-1358.56775	-543.0257	46.5438	-1309.7572	-270.33069	1713.79895	-1442.95325	-1973.10388	1023.36768	3101.97778	-2012.59973	1022.03235	3140.61938	NaN	NaN	NaN
160	1.59	-262.38577	1668.70068	-1532.85706	-245.90883	1683.11462	-1421.28491	-371.9967	1610.1969	-1517.90015	-357.46881	1623.73047	-1398.40015	-391.54541	1428.71399	-1462.6637	-417.29401	1134.69495	-1433.98572	-246.96468	1365.35095	-1461.48792	-196.35768	1212.31128	-1457.97803	-437.34445	1236.36035	-1370.34656	-309.0127	1382.79858	-1623.36755	-335.56247	1192.83984	-1697.49902	-349.6575	1043.61316	-1687.25378	-315.65442	934.76959	-1707.00903	-241.78702	817.29327	-1682.3656	-297.12567	813.68958	-1707.59998	-252.31787	740.63104	-1711.51428	-306.13165	1397.0542	-1309.8175	-347.28439	1200.28406	-1194.30505	-340.00937	1073.81409	-1187.44312	-291.69125	961.59973	-1159.03857	-193.7556	861.00238	-1186.07825	-233.27841	854.45953	-1142.83813	-182.61481	785.1593	-1149.3634	-234.05997	934.12115	-1528.12927	-245.39934	931.5047	-1312.13281	-423.20889	944.45026	-1484.77368	-426.83188	945.5658	-1340.04578	-221.76814	611.83136	-1588.41675	-209.52734	477.82578	-1570.8739	-238.37932	288.47809	-1581.77307	-241.6021	69.8465	-1528.24316	-281.4823	39.1479	-1472.3114	-92.07713	37.54254	-1534.57935	-295.81256	592.55939	-1249.32544	-297.54169	433.61337	-1263.32422	-441.48859	330.96982	-1264.14612	-586.34094	184.30496	-1307.90894	-641.01764	192.93419	-1361.84058	-536.88361	50.88209	-1311.1311	-263.04086	1713.81177	-1445.04712	-1973.14612	1023.39386	3101.97778	-2012.55823	1022.08057	3140.75659	NaN	NaN	NaN
161	1.6	-254.99553	1669.02063	-1534.8728	-238.58368	1683.41577	-1423.23279	-364.65195	1610.5022	-1519.97009	-350.15781	1624.04468	-1400.39063	-384.24597	1429.21252	-1464.53516	-410.50681	1135.17139	-1436.13562	-239.72427	1365.55603	-1463.18555	-189.48854	1212.48401	-1459.71887	-430.45129	1236.78638	-1372.62939	-301.54227	1383.01819	-1625.12598	-326.84018	1193.12524	-1699.82837	-339.8942	1043.60522	-1689.83801	-304.52252	935.15857	-1709.69727	-229.19972	818.62689	-1684.979	-284.45325	814.40558	-1710.58728	-238.74159	741.89569	-1714.25269	-298.9816	1397.31104	-1311.58191	-341.03183	1200.48743	-1196.32007	-334.27371	1074.15503	-1189.37561	-287.28915	961.46857	-1160.86938	-190.76282	859.53363	-1187.83459	-230.1368	853.61127	-1144.58215	-180.60536	783.55194	-1151.00464	-227.27278	934.34674	-1530.22131	-238.42198	931.83331	-1314.17944	-416.63614	944.53699	-1486.83533	-420.43066	944.62341	-1342.00281	-217.11406	611.70465	-1589.97583	-206.28523	477.54797	-1572.54187	-237.14052	288.25974	-1582.45447	-241.48	69.80901	-1528.26196	-281.51154	39.15908	-1472.34802	-91.88271	37.03997	-1534.40649	-282.97388	592.75134	-1250.2135	-282.49994	434.19461	-1263.98962	-428.09387	334.35785	-1265.66455	-574.9986	190.98524	-1310.79358	-628.74622	200.7534	-1365.59912	-529.50116	55.69881	-1311.76941	-255.68301	1714.32556	-1447.03137	-1972.94336	1023.83838	3101.99854	-2012.50269	1021.98285	3140.81421	NaN	NaN	NaN
